<?xml version="1.0" standalone="no"?>
<!DOCTYPE svg PUBLIC "-//W3C//DTD SVG 20010904//EN"
 "http://www.w3.org/TR/2001/REC-SVG-20010904/DTD/svg10.dtd">
<svg version="1.0" xmlns="http://www.w3.org/2000/svg"
 width="1024.000000pt" height="1024.000000pt" viewBox="0 0 1024.000000 1024.000000"
 preserveAspectRatio="xMidYMid meet">
<metadata>
Created by potrace 1.14, written by Peter Selinger 2001-2017
</metadata>
<g transform="translate(0.000000,1024.000000) scale(0.100000,-0.100000)"
fill="#000000" stroke="none">
<path d="M5098 9675 c-2 -1 -57 -6 -123 -10 -66 -3 -122 -8 -125 -10 -3 -2
-27 -6 -55 -9 -216 -24 -540 -100 -776 -182 -353 -122 -746 -321 -1021 -516
-58 -41 -177 -108 -193 -108 -8 0 33 39 120 114 367 318 847 557 1318 657 59
12 107 26 107 31 0 5 -3 7 -7 5 -5 -3 -42 -8 -83 -12 -41 -4 -84 -9 -95 -11
-10 -2 -37 -6 -60 -9 -232 -34 -560 -128 -810 -235 -441 -188 -803 -431 -1155
-776 l-95 -94 1 127 1 127 -65 -70 c-335 -358 -605 -779 -799 -1244 -83 -200
-177 -504 -217 -705 -25 -126 -26 -128 -31 -157 -8 -46 -20 -131 -30 -208 -4
-30 -17 -167 -21 -215 -6 -79 -6 -423 1 -500 12 -151 15 -181 21 -220 7 -49
11 -78 19 -130 3 -23 7 -52 10 -65 3 -13 7 -42 11 -64 3 -22 8 -44 10 -48 7
-12 24 -158 18 -158 -12 0 -99 248 -119 342 -56 261 -70 387 -70 653 0 247 10
378 45 570 10 55 16 101 15 103 -12 13 -122 -343 -145 -468 -6 -30 -12 -66
-15 -80 -25 -125 -43 -253 -53 -370 -14 -173 -7 -698 12 -810 3 -14 7 -47 11
-75 31 -253 96 -530 186 -794 34 -97 69 -212 79 -256 16 -70 18 -93 11 -139
-2 -17 -52 38 -88 96 -20 32 -37 58 -39 58 -6 0 34 -105 77 -205 379 -881
1088 -1616 1981 -2054 241 -118 597 -252 787 -296 9 -3 54 -20 101 -39 47 -20
100 -38 118 -42 17 -3 32 -10 32 -15 0 -9 -47 -7 -130 5 -19 3 -53 8 -75 11
-61 9 -213 46 -275 67 -66 22 -55 8 13 -17 26 -10 46 -20 44 -22 -2 -2 -72 19
-154 46 -304 101 -594 249 -848 434 -80 59 -237 186 -247 201 -4 6 -9 8 -13 5
-5 -5 199 -208 285 -284 375 -330 919 -616 1425 -750 182 -48 463 -99 592
-107 24 -2 43 -4 43 -5 0 -2 -43 -35 -95 -74 -53 -40 -92 -75 -88 -80 21 -19
530 -31 728 -16 92 7 239 24 355 43 652 103 1304 382 1820 777 266 204 524
461 698 694 26 34 48 60 50 58 6 -6 -83 -168 -131 -240 -231 -346 -641 -698
-1082 -929 -71 -37 -37 -32 90 13 779 275 1517 905 2004 1709 29 49 134 162
149 162 20 0 14 -55 -13 -127 -15 -38 -22 -63 -16 -58 24 25 114 184 179 316
196 400 309 771 376 1239 24 165 31 295 31 580 0 230 -4 334 -20 465 -2 17 -6
53 -9 80 -3 28 -15 102 -26 165 -24 130 -46 265 -54 325 -3 22 -10 65 -15 95
-6 30 -12 66 -15 80 -9 57 -86 340 -110 405 -14 38 -24 71 -22 72 4 4 70 -143
86 -190 6 -21 14 -37 16 -35 2 2 -12 56 -32 120 -141 473 -395 943 -724 1340
-159 192 -508 545 -630 637 -45 33 -79 61 -76 61 10 0 153 -78 235 -127 117
-71 281 -191 381 -278 47 -40 268 -261 305 -305 165 -193 289 -378 412 -615
40 -77 73 -137 73 -133 0 14 -78 213 -123 313 -177 394 -479 811 -812 1126
-167 158 -413 342 -623 468 -67 40 -122 74 -122 76 0 2 52 16 115 31 63 15
115 30 115 33 0 3 -10 11 -23 17 -12 6 -83 42 -157 80 -322 165 -674 289
-1015 358 -16 4 -41 9 -55 12 -56 11 -188 34 -230 39 -25 3 -56 7 -70 9 -14 3
-65 8 -115 12 -49 3 -106 8 -125 10 -51 5 -404 5 -480 0 -92 -6 -224 -19 -320
-31 -19 -3 -54 -7 -76 -10 -23 -3 -53 -8 -65 -11 -13 -3 -73 -7 -134 -9 -142
-5 -303 -18 -380 -30 -16 -2 23 14 89 35 120 41 396 104 496 115 30 4 61 8 68
10 11 4 99 13 189 19 36 2 57 16 27 17 -10 0 -35 3 -54 5 -40 4 -408 12 -412
9z m385 -639 c65 -4 128 -9 140 -11 12 -2 45 -6 72 -9 28 -4 61 -8 75 -11 14
-2 41 -6 60 -9 413 -59 907 -234 1310 -465 85 -48 358 -225 370 -240 3 -3 32
-26 64 -50 178 -132 438 -382 591 -566 28 -33 53 -62 56 -65 40 -34 264 -362
352 -517 210 -367 370 -807 443 -1213 21 -117 30 -181 39 -275 4 -38 9 -81 12
-95 11 -58 9 -542 -4 -675 -62 -660 -281 -1273 -650 -1820 -56 -84 -192 -263
-231 -305 -9 -10 -37 -43 -62 -73 -49 -60 -271 -282 -360 -362 -599 -531
-1386 -866 -2210 -942 -110 -10 -549 -10 -665 0 -487 42 -975 181 -1409 402
-161 81 -375 209 -477 284 -30 22 -74 55 -99 73 -159 116 -439 373 -571 523
-69 79 -206 252 -259 328 -57 80 -190 258 -200 267 -20 17 -260 372 -260 385
0 2 -13 27 -29 54 -93 157 -156 306 -177 420 -3 12 -11 51 -19 85 -8 33 -16
75 -19 91 -3 17 -8 41 -11 55 -3 14 -7 48 -10 75 l-5 50 15 -55 c74 -260 204
-572 339 -812 56 -99 73 -112 27 -19 -149 295 -305 830 -336 1151 -4 36 -8 70
-10 77 -9 27 -19 257 -19 418 0 153 11 392 19 405 1 3 6 38 9 79 4 41 9 77 10
80 2 3 7 29 10 56 4 28 16 95 27 150 132 645 427 1244 864 1755 67 78 356 362
440 432 474 396 1028 670 1625 806 74 17 151 34 170 37 19 3 46 7 60 10 27 5
62 9 150 20 30 4 66 8 80 10 14 3 70 7 125 10 55 3 100 7 101 8 5 5 330 -1
437 -7z m1646 -326 c216 -78 471 -194 557 -253 29 -20 54 -33 57 -30 7 6 127
-73 177 -117 128 -113 171 -153 248 -230 129 -128 195 -200 183 -200 -5 0 -12
4 -16 9 -22 37 -418 314 -610 428 -60 36 -137 84 -170 107 -63 44 -192 126
-260 164 -76 43 -339 172 -352 172 -6 0 -14 4 -18 10 -7 11 64 -10 204 -60z
m2025 -3009 c9 -57 11 -65 19 -77 9 -16 54 -225 62 -294 4 -30 8 -57 10 -60 3
-5 10 -62 20 -160 11 -100 2 -203 -34 -400 l-17 -95 0 215 c0 205 -5 312 -20
445 -4 33 -8 81 -8 107 -1 27 -4 48 -7 48 -3 0 -6 12 -7 28 -1 15 -11 74 -22
132 -11 58 -23 116 -25 130 -3 14 -7 37 -10 52 -3 15 -9 38 -15 52 -5 13 -7
26 -5 28 2 2 -2 26 -10 53 -8 26 -15 53 -14 59 1 17 77 -221 83 -263z m-5609
-4249 c-3 -3 -11 0 -18 7 -9 10 -8 11 6 5 10 -3 15 -9 12 -12z m72 -23 c136
-60 606 -209 657 -209 8 0 17 -4 20 -9 3 -5 -26 -3 -64 5 -147 28 -452 129
-610 202 -74 35 -77 43 -3 11z m268 -46 c39 -8 79 -16 90 -18 11 -1 61 -10
110 -19 50 -8 109 -18 133 -21 57 -7 110 -13 152 -19 205 -26 482 -40 827 -40
150 -1 273 -4 273 -7 0 -6 -201 -37 -290 -45 -25 -2 -58 -6 -73 -9 -45 -8
-302 -19 -412 -18 -187 1 -240 6 -345 30 -133 30 -115 25 -252 67 -182 55
-418 147 -313 121 17 -4 62 -14 100 -22z m1622 -119 c-3 -3 -12 -4 -19 -1 -8
3 -5 6 6 6 11 1 17 -2 13 -5z"/>
<path d="M6220 7676 c56 -57 59 -60 101 -123 20 -29 39 -50 44 -45 5 4 5 2 1
-5 -4 -7 5 -35 19 -62 14 -28 25 -58 25 -66 0 -9 3 -14 8 -12 4 3 7 -5 8 -16
0 -12 6 -51 12 -87 12 -71 9 -161 -8 -247 -14 -65 -19 -78 -105 -276 -25 -59
-43 -111 -40 -117 3 -5 0 -8 -7 -6 -8 3 -29 -29 -58 -87 -24 -51 -47 -94 -50
-97 -3 -3 -13 -21 -24 -40 -34 -64 -57 -105 -77 -135 -10 -16 -25 -41 -32 -55
-6 -14 -29 -51 -50 -83 -20 -31 -37 -60 -37 -63 0 -3 -18 -32 -40 -65 -23 -32
-37 -59 -33 -59 4 0 -3 -9 -14 -19 -11 -11 -27 -33 -34 -50 -8 -17 -17 -31
-21 -31 -5 0 -8 -7 -8 -15 0 -8 -4 -15 -10 -15 -5 0 -10 -5 -10 -10 0 -6 -18
-38 -40 -71 -22 -33 -40 -64 -40 -69 0 -5 -6 -15 -14 -22 -16 -17 -132 -220
-142 -251 -5 -12 -7 -25 -6 -29 1 -5 -2 -8 -7 -8 -10 0 -21 -27 -20 -44 0 -5
-4 -12 -9 -15 -6 -3 -26 -44 -45 -91 -49 -121 -50 -123 -53 -140 -2 -8 -7 -23
-13 -35 -11 -21 -57 -173 -65 -215 -3 -14 -15 -65 -26 -115 -25 -106 -30 -135
-35 -195 -2 -25 -4 -45 -5 -45 -1 0 -3 -9 -5 -20 -3 -17 -121 -135 -135 -134
-3 0 -42 35 -88 77 -71 67 -83 83 -87 117 -3 22 -7 51 -10 65 -8 39 -13 65
-19 104 -5 33 -23 112 -32 146 -2 8 -9 39 -15 67 -7 31 -16 50 -22 46 -6 -3
-7 -1 -3 6 7 11 -52 197 -81 254 -7 15 -11 27 -9 27 15 0 -198 401 -216 408
-4 2 -6 8 -2 13 3 5 0 9 -5 9 -6 0 -11 5 -11 11 0 10 -19 41 -96 159 -16 25
-32 53 -36 63 -5 11 -13 15 -19 11 -8 -4 -9 -3 -5 4 4 7 -8 36 -27 64 -19 29
-44 70 -56 91 -13 20 -27 37 -32 37 -5 0 -8 3 -7 8 2 9 -14 46 -22 52 -4 3
-17 24 -29 48 -12 23 -27 42 -33 42 -6 0 -9 3 -6 6 4 3 -14 39 -38 80 -24 41
-58 100 -74 132 -17 31 -34 64 -40 72 -5 8 -29 56 -54 107 -24 51 -47 89 -51
85 -5 -4 -5 -2 -2 5 10 16 -3 44 -16 36 -5 -3 -7 -2 -4 4 3 5 -11 55 -33 110
-48 125 -68 217 -64 308 2 60 5 87 18 150 5 27 43 116 68 161 15 28 25 54 21
59 -5 4 -2 5 5 1 7 -4 15 0 19 11 4 10 13 24 20 31 7 8 11 18 7 23 -3 5 -1 8
4 7 7 -3 102 89 102 98 0 4 -63 -29 -70 -36 -3 -3 -18 -11 -33 -18 -17 -7 -25
-17 -21 -24 4 -7 3 -8 -5 -4 -12 8 -111 -59 -111 -75 0 -5 -6 -9 -13 -9 -17 0
-49 -39 -42 -50 3 -6 0 -7 -8 -4 -8 3 -21 -6 -32 -23 -10 -15 -24 -32 -32 -36
-7 -4 -13 -12 -13 -18 0 -5 -12 -21 -26 -36 -14 -14 -23 -32 -20 -39 3 -8 -1
-17 -9 -20 -20 -8 -67 -103 -61 -121 3 -8 2 -11 -4 -8 -14 9 -59 -153 -66
-240 -8 -84 -5 -127 8 -142 9 -12 9 -15 1 -9 -10 5 -13 -3 -13 -28 0 -20 3
-36 8 -36 4 0 7 -22 8 -49 0 -27 4 -57 9 -67 4 -11 9 -30 11 -43 2 -13 7 -27
11 -30 4 -3 9 -13 10 -21 2 -17 9 -46 17 -75 8 -24 -33 56 -55 111 -16 37 -27
69 -29 79 -1 3 -6 19 -12 37 -5 18 -18 74 -29 123 -22 109 -20 336 5 425 23
79 20 82 -20 20 -80 -122 -154 -315 -131 -340 9 -10 9 -11 0 -6 -7 4 -13 4
-14 -1 -12 -90 -11 -238 1 -302 17 -84 52 -191 60 -186 5 3 6 -4 3 -15 -3 -12
0 -20 8 -20 7 0 10 -3 6 -6 -7 -8 58 -134 93 -180 8 -11 -10 4 -39 31 -59 56
-138 159 -171 222 -12 24 -25 41 -28 39 -4 -2 -8 6 -9 17 0 12 -5 33 -11 47
-5 14 -10 28 -11 32 -1 4 -8 25 -16 47 -7 21 -16 64 -20 95 -4 31 -11 56 -14
56 -18 0 -42 -166 -40 -273 3 -123 23 -215 70 -316 28 -58 114 -199 130 -211
4 -3 23 -26 42 -52 20 -26 53 -63 74 -83 l38 -36 -43 21 c-37 18 -46 19 -60 8
-15 -11 -15 -11 -4 3 10 14 8 19 -13 33 -14 9 -25 15 -25 13 0 -10 -100 92
-136 138 -21 28 -42 52 -46 53 -5 2 -8 9 -8 15 0 7 -12 35 -25 62 -14 28 -25
56 -25 63 0 7 -4 10 -10 7 -5 -3 -7 0 -5 8 3 7 1 24 -4 38 -12 29 -13 24 -15
-69 -1 -41 2 -76 6 -78 4 -3 5 -11 2 -18 -3 -8 -1 -38 4 -67 l10 -52 -35 39
c-130 148 -217 296 -230 389 -5 41 -8 46 -13 25 -17 -64 -6 -195 24 -285 3
-11 -5 3 -19 30 -13 28 -25 57 -25 66 0 9 -3 19 -7 23 -9 9 -10 14 -12 57 -1
21 -5 28 -13 23 -9 -5 -10 -4 -3 4 7 7 8 36 5 72 -3 33 -3 60 0 60 3 0 6 20 8
45 1 24 6 55 12 69 6 17 5 26 -3 30 -9 3 -9 5 1 5 6 1 12 6 12 12 0 6 13 44
30 86 17 41 30 77 30 80 0 4 -32 -33 -83 -97 -56 -69 -110 -167 -103 -186 3
-7 0 -13 -5 -11 -15 3 -62 -122 -54 -142 3 -8 3 -12 -2 -8 -4 4 -12 -18 -19
-50 -8 -38 -8 -60 -2 -64 7 -4 6 -8 -1 -10 -13 -5 -17 -131 -7 -209 3 -25 8
-59 10 -77 4 -31 20 -90 35 -128 22 -53 56 -131 61 -135 3 -3 12 -18 20 -35
19 -38 53 -86 108 -152 24 -29 39 -53 33 -53 -6 0 -11 5 -11 10 0 6 -7 10 -15
10 -8 0 -15 4 -15 8 0 5 -27 37 -60 73 -33 35 -60 67 -60 70 0 3 -11 19 -25
35 -14 16 -25 33 -25 37 0 5 -5 5 -12 1 -6 -4 -8 -3 -5 3 4 6 -1 21 -11 34
-19 25 -88 162 -84 167 1 1 -4 15 -12 30 -23 46 -53 179 -56 247 -2 72 -35
-59 -44 -175 -1 -14 5 -31 13 -38 14 -11 14 -11 -1 -6 -16 5 -17 -2 -12 -82 3
-49 8 -91 12 -94 4 -3 8 -18 9 -35 2 -35 21 -96 44 -144 16 -33 16 -37 -2 -79
-11 -24 -19 -52 -19 -62 0 -10 -4 -21 -8 -24 -8 -5 -59 66 -99 139 l-23 40 6
-69 c6 -75 43 -203 69 -243 12 -18 16 -46 15 -106 -2 -116 -1 -134 8 -120 4 6
7 -10 8 -35 1 -78 80 -288 125 -333 10 -10 16 -19 13 -19 -11 0 69 -94 139
-163 82 -80 153 -131 169 -121 7 4 8 3 4 -4 -10 -17 -31 -15 -46 3 -7 9 -19
14 -27 11 -8 -3 -12 -2 -9 3 3 5 -9 16 -27 24 -17 9 -47 27 -66 41 -19 14 -38
23 -43 20 -5 -3 -7 0 -6 6 2 7 -6 17 -16 23 -11 7 -31 24 -44 40 -13 15 -28
24 -33 21 -5 -3 -8 -2 -7 3 4 13 -44 63 -55 56 -6 -3 -7 -2 -4 3 7 12 -48 76
-57 67 -4 -4 -4 0 0 10 3 9 1 17 -4 17 -6 0 -14 9 -17 20 -4 11 -11 18 -16 15
-5 -3 -6 0 -3 8 3 8 1 18 -4 21 -12 7 -70 126 -88 180 -12 39 -13 35 -9 -64 4
-96 9 -155 15 -155 1 0 3 -9 4 -20 6 -47 18 -85 27 -85 6 0 8 -4 4 -9 -8 -14
32 -106 45 -103 6 1 9 -2 5 -8 -8 -13 14 -52 25 -45 6 3 7 0 4 -8 -3 -8 2 -21
10 -30 9 -9 16 -19 16 -24 0 -12 120 -134 165 -168 22 -17 42 -32 45 -35 18
-21 170 -99 204 -106 11 -2 24 -9 30 -15 24 -25 -145 8 -249 49 -110 44 -212
111 -297 196 l-47 48 9 -34 c16 -54 32 -88 42 -88 5 0 6 -4 3 -10 -6 -10 21
-59 40 -72 5 -4 7 -8 2 -8 -4 0 0 -11 9 -25 9 -14 20 -22 25 -19 5 3 6 -1 4
-8 -6 -16 110 -135 126 -130 6 1 8 -2 5 -7 -9 -14 124 -94 214 -129 14 -5 36
-14 50 -20 54 -22 213 -62 258 -65 10 0 18 -16 10 -17 -2 -1 -43 -3 -93 -6
-111 -7 -221 10 -304 47 -24 10 -48 16 -55 12 -6 -3 -8 -3 -4 2 4 4 -18 23
-50 42 -31 19 -68 44 -81 56 l-24 22 13 -25 c33 -63 174 -230 195 -230 5 0 16
-9 23 -20 7 -12 17 -18 21 -15 5 2 11 -2 15 -10 3 -8 12 -15 21 -15 8 0 15 -4
15 -8 0 -12 49 -34 60 -27 5 3 14 -4 20 -15 6 -11 19 -20 28 -20 10 0 22 -4
27 -9 12 -11 143 -47 205 -56 25 -4 47 -8 49 -10 2 -3 12 0 22 5 10 6 20 7 23
2 10 -16 188 -2 284 23 28 7 50 10 47 5 -2 -4 -36 -16 -75 -26 -38 -10 -70
-22 -70 -27 0 -4 -4 -5 -10 -2 -5 3 -42 -4 -82 -16 -86 -27 -84 -26 -104 -28
-8 0 -13 -4 -11 -8 3 -5 -9 -9 -26 -9 -37 -2 -145 -31 -167 -45 -11 -7 -6 -9
17 -6 18 2 30 0 28 -3 -4 -7 104 -25 220 -37 130 -13 411 -6 509 13 11 2 38 6
60 10 22 3 45 9 51 12 5 4 21 5 34 3 13 -1 21 1 18 6 -3 4 7 8 21 9 41 1 143
30 337 96 101 35 265 115 265 129 0 6 4 8 9 4 5 -3 13 0 16 6 4 6 20 18 35 27
53 33 145 125 207 208 12 16 29 38 37 49 10 13 6 -6 -9 -51 -106 -309 -38
-669 181 -954 59 -78 85 -99 124 -104 31 -3 40 2 90 53 171 175 262 413 261
680 -1 169 -26 291 -83 404 -11 22 -17 42 -14 45 3 3 6 0 6 -7 0 -7 5 -9 12
-5 7 4 8 3 4 -4 -4 -7 2 -22 13 -34 11 -12 33 -40 48 -62 45 -67 233 -244 233
-220 0 4 6 0 13 -11 8 -10 19 -15 26 -11 6 4 10 3 9 -4 -3 -12 121 -82 133
-74 4 2 9 0 11 -6 3 -10 198 -82 198 -73 0 3 7 -1 17 -8 9 -8 17 -12 17 -10 1
2 18 -1 38 -8 21 -7 43 -9 49 -5 7 4 9 3 6 -3 -6 -10 158 -53 217 -56 20 -1
36 -5 36 -8 0 -12 205 -30 345 -31 97 -1 214 5 211 11 -2 3 19 6 47 6 29 0 90
8 137 17 47 10 87 18 90 19 8 1 -151 48 -180 53 -14 2 -38 9 -54 15 -16 7 -35
10 -42 7 -7 -3 -14 -1 -16 4 -2 5 -14 11 -28 14 -14 3 -43 10 -65 16 -22 7
-55 15 -74 18 -19 4 -36 12 -38 19 -3 8 7 9 37 2 23 -5 45 -7 50 -4 5 3 11 1
15 -5 4 -6 58 -8 148 -5 160 5 167 5 167 16 0 5 7 6 15 3 8 -3 20 -2 27 2 7 5
22 10 33 11 11 2 27 6 35 10 8 3 20 7 27 9 34 7 91 39 86 47 -3 6 -1 7 5 3 23
-14 220 132 207 154 -3 5 0 7 7 5 8 -3 30 16 53 47 22 29 43 55 48 56 4 2 7 8
7 14 0 5 10 24 22 40 21 30 21 30 0 19 -11 -6 -22 -15 -24 -19 -4 -12 -138
-92 -165 -98 -13 -4 -23 -9 -23 -13 0 -4 -8 -7 -17 -7 -10 -1 -29 -4 -43 -7
-75 -19 -116 -24 -196 -21 -150 6 -167 15 -59 34 41 7 75 16 75 20 0 5 10 6
22 2 11 -3 19 -1 16 4 -3 5 10 10 29 11 20 1 41 7 46 12 6 6 17 11 25 11 7 0
38 11 68 25 30 14 57 25 60 25 3 0 20 11 38 25 18 14 38 25 44 25 5 0 47 35
93 79 55 53 79 83 74 91 -5 8 -4 11 3 7 20 -13 129 180 118 209 -3 8 -2 13 3
10 7 -5 25 34 18 40 -1 1 -34 -28 -74 -66 -39 -38 -69 -71 -66 -73 2 -3 -4 -4
-14 -3 -10 0 -17 -5 -15 -12 1 -8 -2 -11 -8 -7 -6 4 -16 2 -23 -3 -22 -18
-124 -69 -151 -76 -15 -4 -25 -10 -22 -14 2 -4 -8 -8 -22 -8 -15 -1 -52 -7
-82 -13 -101 -21 -126 -24 -114 -11 6 6 18 12 25 13 17 3 133 60 174 86 17 10
29 24 27 31 -1 6 2 9 8 5 19 -12 186 138 174 157 -3 4 1 8 8 8 17 0 80 99 128
202 7 14 9 32 5 39 -5 7 -4 10 2 6 9 -5 22 35 39 118 3 17 8 80 10 140 l4 110
-23 -60 c-13 -33 -30 -73 -36 -90 -7 -16 -12 -32 -11 -34 1 -2 -5 -8 -14 -13
-9 -5 -16 -15 -16 -23 0 -7 -6 -20 -12 -27 -7 -7 -32 -38 -55 -70 -23 -31 -66
-80 -95 -108 -29 -29 -52 -56 -51 -61 2 -5 -3 -6 -10 -4 -6 3 -26 -8 -44 -25
-18 -16 -34 -30 -37 -30 -3 0 -27 -15 -53 -33 -27 -18 -60 -39 -75 -47 -16 -7
-28 -17 -28 -22 0 -5 -5 -6 -10 -3 -6 4 9 20 32 37 24 17 51 39 61 49 10 11
22 19 27 19 6 0 10 7 10 16 0 8 4 13 8 10 11 -7 42 30 34 40 -4 4 -2 4 4 1 9
-5 34 15 42 35 2 4 21 26 43 49 22 24 37 49 35 56 -3 8 -1 11 4 8 6 -3 13 2
17 12 3 10 15 31 26 46 10 15 16 34 13 42 -3 8 -1 14 5 12 11 -2 51 92 44 104
-3 4 -1 9 4 11 17 6 44 161 42 244 -2 54 3 94 13 118 8 20 12 36 8 36 -4 0 -1
4 6 8 7 5 23 46 36 93 12 46 24 88 25 93 2 5 -3 13 -11 17 -10 7 -10 9 0 9 7
0 12 14 12 36 l0 37 -30 -59 c-17 -32 -47 -77 -66 -99 -20 -22 -33 -35 -30
-29 7 14 -24 117 -36 122 -4 2 -3 12 3 23 5 11 7 25 3 31 -4 6 -3 8 3 5 23
-14 63 151 69 286 3 77 1 97 -8 91 -9 -5 -10 -4 -3 4 11 12 7 105 -4 98 -3 -2
-7 17 -8 42 -1 25 -7 50 -13 56 -9 8 -11 7 -9 -4 3 -13 -3 -58 -16 -133 -3
-14 -16 -58 -30 -98 -13 -40 -22 -76 -19 -81 3 -4 1 -8 -4 -8 -14 0 -53 -81
-45 -93 3 -6 1 -7 -5 -3 -10 6 -28 -30 -24 -47 1 -5 -2 -6 -7 -3 -5 3 -16 -10
-25 -29 -9 -19 -22 -35 -28 -35 -5 0 -7 -8 -4 -17 4 -10 4 -14 0 -11 -3 4 -25
-14 -48 -39 -57 -64 -117 -125 -141 -143 -19 -14 -19 -14 -5 4 8 11 27 32 43
47 15 14 27 29 27 32 0 4 18 30 40 59 48 64 103 176 96 195 -3 8 -2 12 3 9 16
-10 54 113 67 219 4 28 8 57 9 65 1 8 -3 18 -9 22 -8 6 -8 8 0 8 12 0 10 130
-2 160 -3 8 -8 29 -9 45 -4 30 -12 70 -15 70 -1 0 -3 10 -6 22 -9 50 -93 223
-111 230 -7 3 -11 9 -8 13 4 7 -56 88 -107 144 -24 26 -23 24 12 -63 17 -40
30 -80 30 -88 0 -8 3 -12 8 -10 9 6 15 -63 16 -198 1 -131 -10 -189 -47 -262
-9 -17 -13 -33 -10 -37 4 -3 1 -6 -5 -6 -7 0 -12 -7 -12 -15 0 -8 -4 -15 -9
-15 -5 0 -13 -10 -17 -22 -3 -12 -19 -36 -35 -52 -16 -17 -27 -36 -25 -43 3
-7 -1 -10 -9 -7 -10 4 -3 19 26 57 21 29 56 84 76 122 33 62 37 80 41 158 5
96 -11 141 -22 65 -13 -84 -108 -238 -231 -373 l-46 -50 5 33 c2 19 7 36 10
40 3 3 0 12 -7 20 -9 13 -9 14 1 8 6 -4 12 -4 12 1 1 4 3 56 6 114 5 76 3 109
-6 114 -7 4 -10 2 -9 -6 4 -17 -20 -89 -34 -106 -5 -7 -6 -13 -2 -13 4 0 2 -7
-5 -15 -7 -8 -9 -15 -4 -15 4 0 -1 -6 -11 -14 -12 -9 -16 -19 -11 -32 4 -10 4
-15 0 -12 -9 10 -36 -20 -29 -32 4 -6 2 -9 -3 -8 -14 5 -64 -60 -56 -73 4 -8
3 -9 -4 -5 -14 9 -53 -24 -45 -38 3 -6 3 -8 -2 -4 -11 10 -76 -42 -68 -55 3
-5 1 -7 -5 -4 -5 4 -17 4 -26 1 -14 -5 -14 -9 -4 -23 12 -14 11 -14 -4 -2 -15
11 -22 11 -43 -3 -38 -25 -30 -5 18 44 60 62 145 175 170 227 12 24 25 43 29
43 4 0 8 7 8 15 0 9 7 27 16 40 9 14 14 34 11 45 -3 11 0 18 7 17 6 -1 11 7
11 18 0 11 3 22 7 26 11 8 27 98 25 142 -2 20 0 37 3 37 3 0 5 21 4 48 -1 26
-3 64 -3 85 -1 21 -4 36 -8 34 -5 -3 -9 14 -9 37 -1 23 -8 55 -16 70 l-15 29
-6 -59 c-4 -33 -16 -88 -27 -124 -23 -74 -80 -200 -90 -200 -4 0 -12 -12 -19
-26 -6 -15 -24 -40 -39 -55 -15 -16 -27 -33 -27 -38 0 -4 -15 -20 -33 -35 -17
-16 -30 -32 -27 -37 4 -5 -1 -6 -9 -3 -9 3 -16 2 -16 -4 0 -5 -7 -13 -16 -16
-10 -4 -6 6 11 25 37 45 109 195 99 210 -4 7 -3 10 4 5 9 -5 23 29 28 69 0 6
3 17 7 25 14 39 18 57 24 109 11 95 7 204 -11 286 -2 11 -5 28 -5 38 -1 10 -5
15 -11 12 -5 -3 -7 0 -4 9 5 13 -41 144 -55 156 -3 3 -7 10 -8 16 -1 6 -18 39
-38 72 -37 63 -62 90 -52 56 42 -140 48 -350 15 -494 -11 -47 -20 -97 -21
-112 -1 -14 -5 -24 -9 -22 -3 2 -10 -10 -13 -28 -4 -18 -12 -38 -17 -45 -5 -7
-7 -17 -3 -23 3 -5 2 -10 -3 -10 -13 0 -33 -59 -25 -74 3 -6 3 -8 -2 -4 -4 4
-14 0 -21 -10 -9 -12 -8 -3 2 28 19 56 20 56 43 157 14 63 18 114 17 225 -2
79 -5 154 -9 168 -3 14 -11 45 -18 70 -14 56 -18 66 -65 163 -21 42 -42 77
-46 77 -4 0 -8 7 -8 15 0 9 -7 18 -15 21 -8 4 -13 10 -10 14 7 12 -159 179
-215 217 -137 93 -199 119 -140 59z m-2490 -356 c0 -5 -2 -10 -4 -10 -3 0 -8
5 -11 10 -3 6 -1 10 4 10 6 0 11 -4 11 -10z m35 -39 c3 -5 2 -12 -3 -15 -5 -3
-9 1 -9 9 0 17 3 19 12 6z m2930 -241 c-3 -5 -12 -10 -18 -10 -7 0 -6 4 3 10
19 12 23 12 15 0z m-3081 -38 c3 -5 -1 -9 -9 -9 -8 0 -15 4 -15 9 0 4 4 8 9 8
6 0 12 -4 15 -8z m-44 -42 c0 -5 -5 -10 -11 -10 -5 0 -7 5 -4 10 3 6 8 10 11
10 2 0 4 -4 4 -10z m3125 0 c3 -6 -1 -7 -9 -4 -18 7 -21 14 -7 14 6 0 13 -4
16 -10z m-2925 -314 c0 -3 -4 -8 -10 -11 -5 -3 -10 -1 -10 4 0 6 5 11 10 11 6
0 10 -2 10 -4z m2600 0 c0 -3 -4 -8 -10 -11 -5 -3 -10 -1 -10 4 0 6 5 11 10
11 6 0 10 -2 10 -4z m-2640 -46 c0 -5 -5 -10 -11 -10 -5 0 -7 5 -4 10 3 6 8
10 11 10 2 0 4 -4 4 -10z m80 6 c0 -3 -4 -8 -10 -11 -5 -3 -10 -1 -10 4 0 6 5
11 10 11 6 0 10 -2 10 -4z m-80 -86 c0 -5 -2 -10 -4 -10 -3 0 -8 5 -11 10 -3
6 -1 10 4 10 6 0 11 -4 11 -10z m75 0 c3 -5 1 -10 -4 -10 -6 0 -11 5 -11 10 0
6 2 10 4 10 3 0 8 -4 11 -10z m-41 -38 c3 -5 -1 -9 -9 -9 -8 0 -12 4 -9 9 3 4
7 8 9 8 2 0 6 -4 9 -8z m3326 -42 c0 -5 -5 -10 -11 -10 -5 0 -7 5 -4 10 3 6 8
10 11 10 2 0 4 -4 4 -10z m-796 -38 c3 -5 -1 -9 -9 -9 -8 0 -12 4 -9 9 3 4 7
8 9 8 2 0 6 -4 9 -8z m-2291 -37 c-3 -9 -8 -14 -10 -11 -3 3 -2 9 2 15 9 16
15 13 8 -4z m-116 -40 c0 -8 -4 -15 -9 -15 -10 0 -11 14 -1 23 9 10 10 9 10
-8z m2318 -5 c3 -5 1 -10 -4 -10 -6 0 -11 5 -11 10 0 6 2 10 4 10 3 0 8 -4 11
-10z m-2202 -35 c-3 -9 -8 -14 -10 -11 -3 3 -2 9 2 15 9 16 15 13 8 -4z m-73
-5 c0 -5 -2 -10 -4 -10 -3 0 -8 5 -11 10 -3 6 -1 10 4 10 6 0 11 -4 11 -10z
m-1320 -40 c0 -5 -2 -10 -4 -10 -3 0 -8 5 -11 10 -3 6 -1 10 4 10 6 0 11 -4
11 -10z m1280 0 c0 -5 -2 -10 -4 -10 -3 0 -8 5 -11 10 -3 6 -1 10 4 10 6 0 11
-4 11 -10z m-1247 -35 c-3 -9 -8 -14 -10 -11 -3 3 -2 9 2 15 9 16 15 13 8 -4z
m1280 0 c-3 -9 -8 -14 -10 -11 -3 3 -2 9 2 15 9 16 15 13 8 -4z m-1353 -5 c0
-5 -4 -10 -10 -10 -5 0 -10 5 -10 10 0 6 5 10 10 10 6 0 10 -4 10 -10z m4035
0 c3 -5 1 -10 -4 -10 -6 0 -11 5 -11 10 0 6 2 10 4 10 3 0 8 -4 11 -10z m80 0
c3 -5 1 -10 -4 -10 -6 0 -11 5 -11 10 0 6 2 10 4 10 3 0 8 -4 11 -10z m205 0
c0 -5 -2 -10 -4 -10 -3 0 -8 5 -11 10 -3 6 -1 10 4 10 6 0 11 -4 11 -10z m74
-6 c3 -8 2 -12 -4 -9 -6 3 -10 10 -10 16 0 14 7 11 14 -7z m-319 -34 c3 -5 1
-10 -4 -10 -6 0 -11 5 -11 10 0 6 2 10 4 10 3 0 8 -4 11 -10z m285 0 c0 -5 -5
-10 -11 -10 -5 0 -7 5 -4 10 3 6 8 10 11 10 2 0 4 -4 4 -10z m77 -5 c0 -8 -4
-12 -9 -9 -5 3 -6 10 -3 15 9 13 12 11 12 -6z m-317 -35 c0 -5 -5 -10 -11 -10
-5 0 -7 5 -4 10 3 6 8 10 11 10 2 0 4 -4 4 -10z m320 -34 c0 -2 -7 -7 -16 -10
-8 -3 -12 -2 -9 4 6 10 25 14 25 6z m-3120 -46 c0 -5 -5 -10 -11 -10 -5 0 -7
5 -4 10 3 6 8 10 11 10 2 0 4 -4 4 -10z m2800 0 c0 -5 -5 -10 -11 -10 -5 0 -7
5 -4 10 3 6 8 10 11 10 2 0 4 -4 4 -10z m-45 -29 c3 -5 2 -12 -3 -15 -5 -3 -9
1 -9 9 0 17 3 19 12 6z m-2718 -16 c0 -8 -4 -12 -9 -9 -5 3 -6 10 -3 15 9 13
12 11 12 -6z m3400 -28 c0 -8 -6 -14 -14 -14 -9 0 -10 4 -2 14 6 7 12 13 14
13 1 0 2 -6 2 -13z m-3437 -1 c0 -3 -4 -8 -10 -11 -5 -3 -10 -1 -10 4 0 6 5
11 10 11 6 0 10 -2 10 -4z m2911 -19 c-10 -9 -11 -8 -5 6 3 10 9 15 12 12 3
-3 0 -11 -7 -18z m-2861 -23 c0 -8 -19 -13 -24 -6 -3 5 1 9 9 9 8 0 15 -2 15
-3z m-50 -44 c0 -5 -2 -10 -4 -10 -3 0 -8 5 -11 10 -3 6 -1 10 4 10 6 0 11 -4
11 -10z m75 0 c3 -5 1 -10 -4 -10 -6 0 -11 5 -11 10 0 6 2 10 4 10 3 0 8 -4
11 -10z m2240 0 c3 -5 1 -10 -4 -10 -6 0 -11 5 -11 10 0 6 2 10 4 10 3 0 8 -4
11 -10z m42 -35 c0 -8 -4 -12 -9 -9 -5 3 -6 10 -3 15 9 13 12 11 12 -6z
m-2322 -5 c3 -5 1 -10 -4 -10 -6 0 -11 5 -11 10 0 6 2 10 4 10 3 0 8 -4 11
-10z m2240 0 c3 -5 1 -10 -4 -10 -6 0 -11 5 -11 10 0 6 2 10 4 10 3 0 8 -4 11
-10z m165 4 c0 -8 -19 -13 -24 -6 -3 5 1 9 9 9 8 0 15 -2 15 -3z m-120 -44 c0
-5 -2 -10 -4 -10 -3 0 -8 5 -11 10 -3 6 -1 10 4 10 6 0 11 -4 11 -10z m80 0
c0 -5 -5 -10 -11 -10 -5 0 -7 5 -4 10 3 6 8 10 11 10 2 0 4 -4 4 -10z m80 6
c0 -3 -4 -8 -10 -11 -5 -3 -10 -1 -10 4 0 6 5 11 10 11 6 0 10 -2 10 -4z m560
-6 c0 -5 -2 -10 -4 -10 -3 0 -8 5 -11 10 -3 6 -1 10 4 10 6 0 11 -4 11 -10z
m880 0 c0 -5 -5 -10 -11 -10 -5 0 -7 5 -4 10 3 6 8 10 11 10 2 0 4 -4 4 -10z
m-4120 -80 c0 -5 -5 -10 -11 -10 -5 0 -7 5 -4 10 3 6 8 10 11 10 2 0 4 -4 4
-10z m84 2 c3 -5 -1 -9 -9 -9 -8 0 -15 4 -15 9 0 4 4 8 9 8 6 0 12 -4 15 -8z
m596 4 c0 -3 -4 -8 -10 -11 -5 -3 -10 -1 -10 4 0 6 5 11 10 11 6 0 10 -2 10
-4z m1800 -4 c0 -5 -7 -9 -15 -9 -8 0 -12 4 -9 9 3 4 9 8 15 8 5 0 9 -4 9 -8z
m75 -2 c3 -5 1 -10 -4 -10 -6 0 -11 5 -11 10 0 6 2 10 4 10 3 0 8 -4 11 -10z
m-2590 -40 c3 -6 -1 -7 -9 -4 -18 7 -21 14 -7 14 6 0 13 -4 16 -10z m75 0 c0
-5 -5 -10 -11 -10 -5 0 -7 5 -4 10 3 6 8 10 11 10 2 0 4 -4 4 -10z m680 0 c0
-5 -2 -10 -4 -10 -3 0 -8 5 -11 10 -3 6 -1 10 4 10 6 0 11 -4 11 -10z m1720 0
c0 -5 -5 -10 -11 -10 -5 0 -7 5 -4 10 3 6 8 10 11 10 2 0 4 -4 4 -10z m75 0
c3 -5 1 -10 -4 -10 -6 0 -11 5 -11 10 0 6 2 10 4 10 3 0 8 -4 11 -10z m1242
-5 c0 -8 -4 -12 -9 -9 -5 3 -6 10 -3 15 9 13 12 11 12 -6z m278 -3 c-3 -3 -11
0 -18 7 -9 10 -8 11 6 5 10 -3 15 -9 12 -12z m-4635 -32 c0 -5 -2 -10 -4 -10
-3 0 -8 5 -11 10 -3 6 -1 10 4 10 6 0 11 -4 11 -10z m1280 6 c0 -3 -4 -8 -10
-11 -5 -3 -10 -1 -10 4 0 6 5 11 10 11 6 0 10 -2 10 -4z m80 -6 c0 -5 -2 -10
-4 -10 -3 0 -8 5 -11 10 -3 6 -1 10 4 10 6 0 11 -4 11 -10z m2960 6 c0 -3 -4
-8 -10 -11 -5 -3 -10 -1 -10 4 0 6 5 11 10 11 6 0 10 -2 10 -4z m50 -42 c0 -8
-19 -13 -24 -6 -3 5 1 9 9 9 8 0 15 -2 15 -3z m-3735 -44 c3 -5 1 -10 -4 -10
-6 0 -11 5 -11 10 0 6 2 10 4 10 3 0 8 -4 11 -10z m85 0 c0 -5 -5 -10 -11 -10
-5 0 -7 5 -4 10 3 6 8 10 11 10 2 0 4 -4 4 -10z m2640 0 c0 -5 -2 -10 -4 -10
-3 0 -8 5 -11 10 -3 6 -1 10 4 10 6 0 11 -4 11 -10z m80 0 c0 -5 -2 -10 -4
-10 -3 0 -8 5 -11 10 -3 6 -1 10 4 10 6 0 11 -4 11 -10z m880 6 c0 -3 -4 -8
-10 -11 -5 -3 -10 -1 -10 4 0 6 5 11 10 11 6 0 10 -2 10 -4z m277 -11 c0 -8
-4 -12 -9 -9 -5 3 -6 10 -3 15 9 13 12 11 12 -6z m-5157 -29 c0 -3 -4 -8 -10
-11 -5 -3 -10 -1 -10 4 0 6 5 11 10 11 6 0 10 -2 10 -4z m1235 -6 c3 -5 1 -10
-4 -10 -6 0 -11 5 -11 10 0 6 2 10 4 10 3 0 8 -4 11 -10z m2725 0 c0 -5 -2
-10 -4 -10 -3 0 -8 5 -11 10 -3 6 -1 10 4 10 6 0 11 -4 11 -10z m845 0 c-3 -5
-12 -10 -18 -10 -7 0 -6 4 3 10 19 12 23 12 15 0z m-4001 -38 c3 -5 -1 -9 -9
-9 -8 0 -12 4 -9 9 3 4 7 8 9 8 2 0 6 -4 9 -8z m391 -2 c3 -5 1 -10 -4 -10 -6
0 -11 5 -11 10 0 6 2 10 4 10 3 0 8 -4 11 -10z m85 0 c0 -5 -5 -10 -11 -10 -5
0 -7 5 -4 10 3 6 8 10 11 10 2 0 4 -4 4 -10z m2640 0 c0 -5 -5 -10 -11 -10 -5
0 -7 5 -4 10 3 6 8 10 11 10 2 0 4 -4 4 -10z m80 0 c0 -5 -5 -10 -11 -10 -5 0
-7 5 -4 10 3 6 8 10 11 10 2 0 4 -4 4 -10z m1212 -35 c3 -13 2 -22 -2 -20 -4
2 -7 -9 -8 -25 -1 -48 -29 -93 -72 -118 -24 -13 -38 -28 -34 -34 4 -6 3 -8 -3
-5 -6 4 -38 -7 -71 -23 -34 -17 -66 -30 -71 -30 -6 0 -11 -5 -11 -11 0 -5 -5
-7 -10 -4 -6 4 16 26 47 50 63 47 203 192 203 211 0 4 22 32 26 34 1 0 4 -11
6 -25z m-5213 -50 c24 -32 47 -53 53 -49 6 4 8 3 5 -3 -6 -9 114 -133 128
-133 3 0 18 -12 33 -26 15 -15 23 -24 17 -22 -5 3 -37 18 -70 33 -33 15 -77
39 -97 52 -21 13 -38 21 -38 19 0 -2 -13 8 -29 23 -16 15 -31 40 -34 56 -13
68 -18 105 -14 105 3 0 23 -25 46 -55z m1241 49 c0 -8 -19 -13 -24 -6 -3 5 1
9 9 9 8 0 15 -2 15 -3z m3364 -2 c3 -5 -1 -9 -9 -9 -8 0 -12 4 -9 9 3 4 7 8 9
8 2 0 6 -4 9 -8z m-1164 -42 c0 -5 -5 -10 -11 -10 -5 0 -7 5 -4 10 3 6 8 10
11 10 2 0 4 -4 4 -10z m80 0 c0 -5 -5 -10 -11 -10 -5 0 -7 5 -4 10 3 6 8 10
11 10 2 0 4 -4 4 -10z m1040 6 c0 -3 -4 -8 -10 -11 -5 -3 -10 -1 -10 4 0 6 5
11 10 11 6 0 10 -2 10 -4z m80 -6 c0 -5 -2 -10 -4 -10 -3 0 -8 5 -11 10 -3 6
-1 10 4 10 6 0 11 -4 11 -10z m-2963 -35 c0 -8 -4 -15 -9 -15 -10 0 -11 14 -1
23 9 10 10 9 10 -8z m-1077 -5 c0 -5 -2 -10 -4 -10 -3 0 -8 5 -11 10 -3 6 -1
10 4 10 6 0 11 -4 11 -10z m2880 0 c0 -5 -5 -10 -11 -10 -5 0 -7 5 -4 10 3 6
8 10 11 10 2 0 4 -4 4 -10z m1120 0 c0 -5 -2 -10 -4 -10 -3 0 -8 5 -11 10 -3
6 -1 10 4 10 6 0 11 -4 11 -10z m-4285 -40 c3 -5 1 -10 -4 -10 -6 0 -11 5 -11
10 0 6 2 10 4 10 3 0 8 -4 11 -10z m245 0 c0 -5 -2 -10 -4 -10 -3 0 -8 5 -11
10 -3 6 -1 10 4 10 6 0 11 -4 11 -10z m75 0 c3 -5 1 -10 -4 -10 -6 0 -11 5
-11 10 0 6 2 10 4 10 3 0 8 -4 11 -10z m1085 0 c0 -5 -5 -10 -11 -10 -5 0 -7
5 -4 10 3 6 8 10 11 10 2 0 4 -4 4 -10z m1640 0 c0 -5 -2 -10 -4 -10 -3 0 -8
5 -11 10 -3 6 -1 10 4 10 6 0 11 -4 11 -10z m75 0 c3 -5 1 -10 -4 -10 -6 0
-11 5 -11 10 0 6 2 10 4 10 3 0 8 -4 11 -10z m1125 6 c0 -3 -4 -8 -10 -11 -5
-3 -10 -1 -10 4 0 6 5 11 10 11 6 0 10 -2 10 -4z m80 -6 c0 -5 -2 -10 -4 -10
-3 0 -8 5 -11 10 -3 6 -1 10 4 10 6 0 11 -4 11 -10z m-4445 -29 c3 -5 2 -12
-3 -15 -5 -3 -9 1 -9 9 0 17 3 19 12 6z m79 -9 c3 -5 -1 -9 -9 -9 -8 0 -12 4
-9 9 3 4 7 8 9 8 2 0 6 -4 9 -8z m320 0 c3 -5 -1 -9 -9 -9 -8 0 -12 4 -9 9 3
4 7 8 9 8 2 0 6 -4 9 -8z m1086 -2 c0 -5 -2 -10 -4 -10 -3 0 -8 5 -11 10 -3 6
-1 10 4 10 6 0 11 -4 11 -10z m33 -35 c-3 -9 -8 -14 -10 -11 -3 3 -2 9 2 15 9
16 15 13 8 -4z m-1393 -5 c0 -5 -2 -10 -4 -10 -3 0 -8 5 -11 10 -3 6 -1 10 4
10 6 0 11 -4 11 -10z m320 0 c0 -5 -5 -10 -11 -10 -5 0 -7 5 -4 10 3 6 8 10
11 10 2 0 4 -4 4 -10z m395 0 c3 -5 1 -10 -4 -10 -6 0 -11 5 -11 10 0 6 2 10
4 10 3 0 8 -4 11 -10z m3285 6 c0 -3 -4 -8 -10 -11 -5 -3 -10 -1 -10 4 0 6 5
11 10 11 6 0 10 -2 10 -4z m-3725 -35 c3 -5 2 -12 -3 -15 -5 -3 -9 1 -9 9 0
17 3 19 12 6z m482 -6 c0 -8 -4 -12 -9 -9 -5 3 -6 10 -3 15 9 13 12 11 12 -6z
m3120 0 c0 -8 -4 -12 -9 -9 -5 3 -6 10 -3 15 9 13 12 11 12 -6z m-3917 1 c0
-3 -4 -8 -10 -11 -5 -3 -10 -1 -10 4 0 6 5 11 10 11 6 0 10 -2 10 -4z m4000 0
c0 -3 -4 -8 -10 -11 -5 -3 -10 -1 -10 4 0 6 5 11 10 11 6 0 10 -2 10 -4z
m-3960 -40 c0 -3 -4 -8 -10 -11 -5 -3 -10 -1 -10 4 0 6 5 11 10 11 6 0 10 -2
10 -4z m320 0 c0 -3 -4 -8 -10 -11 -5 -3 -10 -1 -10 4 0 6 5 11 10 11 6 0 10
-2 10 -4z m400 -6 c0 -5 -2 -10 -4 -10 -3 0 -8 5 -11 10 -3 6 -1 10 4 10 6 0
11 -4 11 -10z m1120 6 c0 -3 -4 -8 -10 -11 -5 -3 -10 -1 -10 4 0 6 5 11 10 11
6 0 10 -2 10 -4z m1880 -6 c0 -5 -2 -10 -4 -10 -3 0 -8 5 -11 10 -3 6 -1 10 4
10 6 0 11 -4 11 -10z m120 0 c0 -5 -2 -10 -4 -10 -3 0 -8 5 -11 10 -3 6 -1 10
4 10 6 0 11 -4 11 -10z m75 0 c3 -5 1 -10 -4 -10 -6 0 -11 5 -11 10 0 6 2 10
4 10 3 0 8 -4 11 -10z m85 6 c0 -3 -4 -8 -10 -11 -5 -3 -10 -1 -10 4 0 6 5 11
10 11 6 0 10 -2 10 -4z m-2639 -43 c13 -16 12 -17 -3 -4 -10 7 -18 15 -18 17
0 8 8 3 21 -13z m80 0 c13 -16 12 -17 -3 -4 -10 7 -18 15 -18 17 0 8 8 3 21
-13z m-1407 -1 c3 -5 -1 -9 -9 -9 -8 0 -12 4 -9 9 3 4 7 8 9 8 2 0 6 -4 9 -8z
m361 -42 c3 -5 1 -10 -4 -10 -6 0 -11 5 -11 10 0 6 2 10 4 10 3 0 8 -4 11 -10z
m80 0 c3 -5 1 -10 -4 -10 -6 0 -11 5 -11 10 0 6 2 10 4 10 3 0 8 -4 11 -10z
m3525 6 c0 -3 -4 -8 -10 -11 -5 -3 -10 -1 -10 4 0 6 5 11 10 11 6 0 10 -2 10
-4z m-3565 -46 c3 -5 1 -10 -4 -10 -6 0 -11 5 -11 10 0 6 2 10 4 10 3 0 8 -4
11 -10z m3525 6 c0 -3 -4 -8 -10 -11 -5 -3 -10 -1 -10 4 0 6 5 11 10 11 6 0
10 -2 10 -4z m-3480 -46 c0 -5 -5 -10 -11 -10 -5 0 -7 5 -4 10 3 6 8 10 11 10
2 0 4 -4 4 -10z m80 6 c0 -3 -4 -8 -10 -11 -5 -3 -10 -1 -10 4 0 6 5 11 10 11
6 0 10 -2 10 -4z m3355 -6 c3 -5 1 -10 -4 -10 -6 0 -11 5 -11 10 0 6 2 10 4
10 3 0 8 -4 11 -10z m80 0 c3 -5 1 -10 -4 -10 -6 0 -11 5 -11 10 0 6 2 10 4
10 3 0 8 -4 11 -10z m-315 -42 c0 -4 -4 -8 -9 -8 -6 0 -12 4 -15 8 -3 5 1 9 9
9 8 0 15 -4 15 -9z m966 0 c3 -4 -1 -5 -10 -4 -8 1 -18 5 -22 8 -3 4 1 5 10 4
8 -1 18 -5 22 -8z m-128 -43 c-3 -3 -9 2 -12 12 -6 14 -5 15 5 6 7 -7 10 -15
7 -18z m-4438 11 c0 -3 -4 -8 -10 -11 -5 -3 -10 -1 -10 4 0 6 5 11 10 11 6 0
10 -2 10 -4z m80 0 c0 -3 -4 -8 -10 -11 -5 -3 -10 -1 -10 4 0 6 5 11 10 11 6
0 10 -2 10 -4z m1520 0 c0 -3 -4 -8 -10 -11 -5 -3 -10 -1 -10 4 0 6 5 11 10
11 6 0 10 -2 10 -4z m80 0 c0 -3 -4 -8 -10 -11 -5 -3 -10 -1 -10 4 0 6 5 11
10 11 6 0 10 -2 10 -4z m1875 -6 c3 -5 1 -10 -4 -10 -6 0 -11 5 -11 10 0 6 2
10 4 10 3 0 8 -4 11 -10z m960 0 c3 -5 1 -10 -4 -10 -6 0 -11 5 -11 10 0 6 2
10 4 10 3 0 8 -4 11 -10z m-4559 -46 c1 -9 0 -13 -4 -10 -3 4 -7 14 -8 22 -1
9 0 13 4 10 3 -4 7 -14 8 -22z m79 6 c3 -5 1 -10 -4 -10 -6 0 -11 5 -11 10 0
6 2 10 4 10 3 0 8 -4 11 -10z m1600 0 c3 -5 1 -10 -4 -10 -6 0 -11 5 -11 10 0
6 2 10 4 10 3 0 8 -4 11 -10z m79 -6 c3 -8 2 -12 -4 -9 -6 3 -10 10 -10 16 0
14 7 11 14 -7z m1886 7 c0 -6 -4 -12 -8 -15 -5 -3 -9 1 -9 9 0 8 4 15 9 15 4
0 8 -4 8 -9z m640 5 c0 -3 -4 -8 -10 -11 -5 -3 -10 -1 -10 4 0 6 5 11 10 11 6
0 10 -2 10 -4z m75 -14 c-3 -3 -11 0 -18 7 -9 10 -8 11 6 5 10 -3 15 -9 12
-12z m245 9 c0 -6 -4 -12 -8 -15 -5 -3 -9 1 -9 9 0 8 4 15 9 15 4 0 8 -4 8 -9z
m-4565 -41 c3 -5 1 -10 -4 -10 -6 0 -11 5 -11 10 0 6 2 10 4 10 3 0 8 -4 11
-10z m80 0 c3 -5 1 -10 -4 -10 -6 0 -11 5 -11 10 0 6 2 10 4 10 3 0 8 -4 11
-10z m1520 0 c3 -5 1 -10 -4 -10 -6 0 -11 5 -11 10 0 6 2 10 4 10 3 0 8 -4 11
-10z m80 0 c3 -5 1 -10 -4 -10 -6 0 -11 5 -11 10 0 6 2 10 4 10 3 0 8 -4 11
-10z m1076 -13 c-10 -9 -11 -8 -5 6 3 10 9 15 12 12 3 -3 0 -11 -7 -18z m809
19 c0 -3 -4 -8 -10 -11 -5 -3 -10 -1 -10 4 0 6 5 11 10 11 6 0 10 -2 10 -4z
m640 -8 c0 -4 -4 -8 -9 -8 -6 0 -12 4 -15 8 -3 5 1 9 9 9 8 0 15 -4 15 -9z
m80 8 c0 -3 -4 -8 -10 -11 -5 -3 -10 -1 -10 4 0 6 5 11 10 11 6 0 10 -2 10 -4z
m160 -4 c0 -5 -7 -9 -15 -9 -8 0 -12 4 -9 9 3 4 9 8 15 8 5 0 9 -4 9 -8z m80
4 c0 -3 -4 -8 -10 -11 -5 -3 -10 -1 -10 4 0 6 5 11 10 11 6 0 10 -2 10 -4z
m-1286 -44 c3 -5 -1 -9 -9 -9 -8 0 -12 4 -9 9 3 4 7 8 9 8 2 0 6 -4 9 -8z
m656 4 c0 -2 -8 -10 -17 -17 -16 -13 -17 -12 -4 4 13 16 21 21 21 13z m-3930
-30 c0 -2 -8 -10 -17 -17 -16 -13 -17 -12 -4 4 13 16 21 21 21 13z m1280 0 c0
-2 -8 -10 -17 -17 -16 -13 -17 -12 -4 4 13 16 21 21 21 13z m400 -16 c0 -5 -5
-10 -11 -10 -5 0 -7 5 -4 10 3 6 8 10 11 10 2 0 4 -4 4 -10z m231 -13 c-10 -9
-11 -8 -5 6 3 10 9 15 12 12 3 -3 0 -11 -7 -18z m689 19 c0 -3 -4 -8 -10 -11
-5 -3 -10 -1 -10 4 0 6 5 11 10 11 6 0 10 -2 10 -4z m80 0 c0 -3 -4 -8 -10
-11 -5 -3 -10 -1 -10 4 0 6 5 11 10 11 6 0 10 -2 10 -4z m560 0 c0 -3 -4 -8
-10 -11 -5 -3 -10 -1 -10 4 0 6 5 11 10 11 6 0 10 -2 10 -4z m80 -6 c0 -5 -2
-10 -4 -10 -3 0 -8 5 -11 10 -3 6 -1 10 4 10 6 0 11 -4 11 -10z m560 0 c0 -5
-5 -10 -11 -10 -5 0 -7 5 -4 10 3 6 8 10 11 10 2 0 4 -4 4 -10z m-4005 -48
c-3 -3 -11 0 -18 7 -9 10 -8 11 6 5 10 -3 15 -9 12 -12z m1280 0 c-3 -3 -11 0
-18 7 -9 10 -8 11 6 5 10 -3 15 -9 12 -12z m2125 14 c0 -3 -4 -8 -10 -11 -5
-3 -10 -1 -10 4 0 6 5 11 10 11 6 0 10 -2 10 -4z m637 -11 c0 -8 -4 -12 -9 -9
-5 3 -6 10 -3 15 9 13 12 11 12 -6z m-3924 -30 c-3 -9 -8 -14 -10 -11 -3 3 -2
9 2 15 9 16 15 13 8 -4z m1287 11 c0 -2 -8 -10 -17 -17 -16 -13 -17 -12 -4 4
13 16 21 21 21 13z m631 -29 c-10 -9 -11 -8 -5 6 3 10 9 15 12 12 3 -3 0 -11
-7 -18z m1329 19 c0 -3 -4 -8 -10 -11 -5 -3 -10 -1 -10 4 0 6 5 11 10 11 6 0
10 -2 10 -4z m80 -6 c0 -5 -2 -10 -4 -10 -3 0 -8 5 -11 10 -3 6 -1 10 4 10 6
0 11 -4 11 -10z m560 6 c0 -3 -4 -8 -10 -11 -5 -3 -10 -1 -10 4 0 6 5 11 10
11 6 0 10 -2 10 -4z m-4165 -54 c-3 -3 -11 0 -18 7 -9 10 -8 11 6 5 10 -3 15
-9 12 -12z m165 8 c0 -5 -4 -10 -10 -10 -5 0 -10 5 -10 10 0 6 5 10 10 10 6 0
10 -4 10 -10z m1280 0 c0 -5 -4 -10 -10 -10 -5 0 -10 5 -10 10 0 6 5 10 10 10
6 0 10 -4 10 -10z m2770 4 c0 -8 -19 -13 -24 -6 -3 5 1 9 9 9 8 0 15 -2 15 -3z
m-3926 -42 c3 -5 -1 -9 -9 -9 -8 0 -15 4 -15 9 0 4 4 8 9 8 6 0 12 -4 15 -8z
m1196 -2 c0 -5 -2 -10 -4 -10 -3 0 -8 5 -11 10 -3 6 -1 10 4 10 6 0 11 -4 11
-10z m84 2 c3 -5 -1 -9 -9 -9 -8 0 -15 4 -15 9 0 4 4 8 9 8 6 0 12 -4 15 -8z
m2596 -2 c0 -5 -2 -10 -4 -10 -3 0 -8 5 -11 10 -3 6 -1 10 4 10 6 0 11 -4 11
-10z m75 0 c3 -5 1 -10 -4 -10 -6 0 -11 5 -11 10 0 6 2 10 4 10 3 0 8 -4 11
-10z m725 6 c0 -3 -4 -8 -10 -11 -5 -3 -10 -1 -10 4 0 6 5 11 10 11 6 0 10 -2
10 -4z m-4800 -40 c0 -2 -7 -7 -16 -10 -8 -3 -12 -2 -9 4 6 10 25 14 25 6z
m245 -6 c-3 -5 -12 -10 -18 -10 -7 0 -6 4 3 10 19 12 23 12 15 0z m75 6 c0 -3
-4 -8 -10 -11 -5 -3 -10 -1 -10 4 0 6 5 11 10 11 6 0 10 -2 10 -4z m957 -11
c0 -8 -4 -12 -9 -9 -4 3 -8 9 -8 15 0 5 4 9 8 9 5 0 9 -7 9 -15z m248 5 c-3
-5 -12 -10 -18 -10 -7 0 -6 4 3 10 19 12 23 12 15 0z m2510 0 c3 -5 1 -10 -4
-10 -6 0 -11 5 -11 10 0 6 2 10 4 10 3 0 8 -4 11 -10z m-4355 -34 c0 -3 -4 -8
-10 -11 -5 -3 -10 -1 -10 4 0 6 5 11 10 11 6 0 10 -2 10 -4z m446 -8 c3 -4 -1
-5 -10 -4 -8 1 -18 5 -22 8 -3 4 1 5 10 4 8 -1 18 -5 22 -8z m154 2 c0 -5 -2
-10 -4 -10 -3 0 -8 5 -11 10 -3 6 -1 10 4 10 6 0 11 -4 11 -10z m84 -2 c-3 -4
-9 -8 -15 -8 -5 0 -9 4 -9 8 0 5 7 9 15 9 8 0 12 -4 9 -9z m1036 0 c0 -4 -4
-8 -9 -8 -6 0 -12 4 -15 8 -3 5 1 9 9 9 8 0 15 -4 15 -9z m160 2 c0 -5 -2 -10
-4 -10 -3 0 -8 5 -11 10 -3 6 -1 10 4 10 6 0 11 -4 11 -10z m3080 6 c0 -3 -4
-8 -10 -11 -5 -3 -10 -1 -10 4 0 6 5 11 10 11 6 0 10 -2 10 -4z m-4400 -40 c0
-2 -7 -7 -16 -10 -8 -3 -12 -2 -9 4 6 10 25 14 25 6z m1280 -46 c0 -5 -2 -10
-4 -10 -3 0 -8 5 -11 10 -3 6 -1 10 4 10 6 0 11 -4 11 -10z m80 0 c0 -5 -2
-10 -4 -10 -3 0 -8 5 -11 10 -3 6 -1 10 4 10 6 0 11 -4 11 -10z m2440 0 c0 -5
-5 -10 -11 -10 -5 0 -7 5 -4 10 3 6 8 10 11 10 2 0 4 -4 4 -10z m-4086 -38 c3
-5 -1 -9 -9 -9 -8 0 -12 4 -9 9 3 4 7 8 9 8 2 0 6 -4 9 -8z m1046 -2 c0 -5 -2
-10 -4 -10 -3 0 -8 5 -11 10 -3 6 -1 10 4 10 6 0 11 -4 11 -10z m480 6 c0 -3
-4 -8 -10 -11 -5 -3 -10 -1 -10 4 0 6 5 11 10 11 6 0 10 -2 10 -4z m2517 -11
c0 -8 -4 -12 -9 -9 -4 3 -8 9 -8 15 0 5 4 9 8 9 5 0 9 -7 9 -15z m-4157 -35
c0 -5 -5 -10 -11 -10 -5 0 -7 5 -4 10 3 6 8 10 11 10 2 0 4 -4 4 -10z m80 6
c0 -3 -4 -8 -10 -11 -5 -3 -10 -1 -10 4 0 6 5 11 10 11 6 0 10 -2 10 -4z m80
-6 c0 -5 -5 -10 -11 -10 -5 0 -7 5 -4 10 3 6 8 10 11 10 2 0 4 -4 4 -10z m960
0 c0 -5 -2 -10 -4 -10 -3 0 -8 5 -11 10 -3 6 -1 10 4 10 6 0 11 -4 11 -10z
m75 0 c3 -5 1 -10 -4 -10 -6 0 -11 5 -11 10 0 6 2 10 4 10 3 0 8 -4 11 -10z
m405 6 c0 -3 -4 -8 -10 -11 -5 -3 -10 -1 -10 4 0 6 5 11 10 11 6 0 10 -2 10
-4z m80 0 c0 -3 -4 -8 -10 -11 -5 -3 -10 -1 -10 4 0 6 5 11 10 11 6 0 10 -2
10 -4z m400 -6 c0 -5 -2 -10 -4 -10 -3 0 -8 5 -11 10 -3 6 -1 10 4 10 6 0 11
-4 11 -10z m1120 0 c0 -5 -5 -10 -11 -10 -5 0 -7 5 -4 10 3 6 8 10 11 10 2 0
4 -4 4 -10z m1000 0 c0 -5 -2 -10 -4 -10 -3 0 -8 5 -11 10 -3 6 -1 10 4 10 6
0 11 -4 11 -10z m-883 -35 c0 -8 -4 -12 -9 -9 -5 3 -6 10 -3 15 9 13 12 11 12
-6z m-2163 -3 c3 -5 -1 -9 -9 -9 -8 0 -12 4 -9 9 3 4 7 8 9 8 2 0 6 -4 9 -8z
m2090 0 c3 -5 -1 -9 -9 -9 -8 0 -12 4 -9 9 3 4 7 8 9 8 2 0 6 -4 9 -8z m-2044
-42 c0 -5 -5 -10 -11 -10 -5 0 -7 5 -4 10 3 6 8 10 11 10 2 0 4 -4 4 -10z
m2000 6 c0 -3 -4 -8 -10 -11 -5 -3 -10 -1 -10 4 0 6 5 11 10 11 6 0 10 -2 10
-4z m1475 -6 c3 -5 1 -10 -4 -10 -6 0 -11 5 -11 10 0 6 2 10 4 10 3 0 8 -4 11
-10z m125 6 c0 -3 -4 -8 -10 -11 -5 -3 -10 -1 -10 4 0 6 5 11 10 11 6 0 10 -2
10 -4z m80 0 c0 -3 -4 -8 -10 -11 -5 -3 -10 -1 -10 4 0 6 5 11 10 11 6 0 10
-2 10 -4z m-3725 -35 c3 -5 2 -12 -3 -15 -5 -3 -9 1 -9 9 0 17 3 19 12 6z
m-355 -11 c0 -5 -2 -10 -4 -10 -3 0 -8 5 -11 10 -3 6 -1 10 4 10 6 0 11 -4 11
-10z m80 6 c0 -3 -4 -8 -10 -11 -5 -3 -10 -1 -10 4 0 6 5 11 10 11 6 0 10 -2
10 -4z m2040 -2 c0 -8 -19 -13 -24 -6 -3 5 1 9 9 9 8 0 15 -2 15 -3z m320 -4
c0 -5 -2 -10 -4 -10 -3 0 -8 5 -11 10 -3 6 -1 10 4 10 6 0 11 -4 11 -10z m280
6 c0 -3 -4 -8 -10 -11 -5 -3 -10 -1 -10 4 0 6 5 11 10 11 6 0 10 -2 10 -4z
m1200 -6 c0 -5 -4 -10 -10 -10 -5 0 -10 5 -10 10 0 6 5 10 10 10 6 0 10 -4 10
-10z m515 -29 c3 -5 2 -12 -3 -15 -5 -3 -9 1 -9 9 0 17 3 19 12 6z m-4395 -13
c0 -4 -4 -8 -9 -8 -6 0 -12 4 -15 8 -3 5 1 9 9 9 8 0 15 -4 15 -9z m74 -4 c3
-8 2 -12 -4 -9 -6 3 -10 10 -10 16 0 14 7 11 14 -7z m286 12 c0 -3 -4 -8 -10
-11 -5 -3 -10 -1 -10 4 0 6 5 11 10 11 6 0 10 -2 10 -4z m1600 -6 c0 -5 -5
-10 -11 -10 -5 0 -7 5 -4 10 3 6 8 10 11 10 2 0 4 -4 4 -10z m80 0 c0 -5 -5
-10 -11 -10 -5 0 -7 5 -4 10 3 6 8 10 11 10 2 0 4 -4 4 -10z m320 0 c0 -5 -2
-10 -4 -10 -3 0 -8 5 -11 10 -3 6 -1 10 4 10 6 0 11 -4 11 -10z m80 0 c0 -5
-2 -10 -4 -10 -3 0 -8 5 -11 10 -3 6 -1 10 4 10 6 0 11 -4 11 -10z m284 -2
c-3 -4 -9 -8 -15 -8 -5 0 -9 4 -9 8 0 5 7 9 15 9 8 0 12 -4 9 -9z m1116 8 c0
-3 -4 -8 -10 -11 -5 -3 -10 -1 -10 4 0 6 5 11 10 11 6 0 10 -2 10 -4z m-3523
-41 c0 -8 -4 -15 -9 -15 -10 0 -11 14 -1 23 9 10 10 9 10 -8z m-166 -12 c13
-16 12 -17 -3 -4 -17 13 -22 21 -14 21 2 0 10 -8 17 -17z m84 -1 c-3 -3 -11 0
-18 7 -9 10 -8 11 6 5 10 -3 15 -9 12 -12z m2076 -5 c-10 -9 -11 -8 -5 6 3 10
9 15 12 12 3 -3 0 -11 -7 -18z m89 13 c0 -5 -4 -10 -10 -10 -5 0 -10 5 -10 10
0 6 5 10 10 10 6 0 10 -4 10 -10z m-2882 -45 c-3 -3 -9 2 -12 12 -6 14 -5 15
5 6 7 -7 10 -15 7 -18z m1523 8 c13 -16 12 -17 -3 -4 -17 13 -22 21 -14 21 2
0 10 -8 17 -17z m1672 2 c-3 -9 -8 -14 -10 -11 -3 3 -2 9 2 15 9 16 15 13 8
-4z m-3033 -5 c0 -5 -5 -10 -11 -10 -5 0 -7 5 -4 10 3 6 8 10 11 10 2 0 4 -4
4 -10z m74 -6 c3 -8 2 -12 -4 -9 -6 3 -10 10 -10 16 0 14 7 11 14 -7z m526 6
c0 -5 -5 -10 -11 -10 -5 0 -7 5 -4 10 3 6 8 10 11 10 2 0 4 -4 4 -10z m80 0
c0 -5 -5 -10 -11 -10 -5 0 -7 5 -4 10 3 6 8 10 11 10 2 0 4 -4 4 -10z m1995 0
c3 -5 1 -10 -4 -10 -6 0 -11 5 -11 10 0 6 2 10 4 10 3 0 8 -4 11 -10z m85 0
c0 -5 -5 -10 -11 -10 -5 0 -7 5 -4 10 3 6 8 10 11 10 2 0 4 -4 4 -10z m1760 0
c0 -5 -5 -10 -11 -10 -5 0 -7 5 -4 10 3 6 8 10 11 10 2 0 4 -4 4 -10z m80 0
c0 -5 -2 -10 -4 -10 -3 0 -8 5 -11 10 -3 6 -1 10 4 10 6 0 11 -4 11 -10z
m-4855 -20 c3 -6 -1 -7 -9 -4 -18 7 -21 14 -7 14 6 0 13 -4 16 -10z m1735 -21
c0 -5 -4 -9 -8 -9 -5 0 -9 7 -9 15 0 8 4 12 9 9 4 -3 8 -9 8 -15z m-1523 -4
c0 -8 -4 -12 -9 -9 -4 3 -8 9 -8 15 0 5 4 9 8 9 5 0 9 -7 9 -15z m518 6 c3 -5
2 -12 -3 -15 -5 -3 -9 1 -9 9 0 17 3 19 12 6z m165 -1 c0 -5 -5 -10 -11 -10
-5 0 -7 5 -4 10 3 6 8 10 11 10 2 0 4 -4 4 -10z m1805 0 c-3 -5 -12 -10 -18
-10 -7 0 -6 4 3 10 19 12 23 12 15 0z m270 0 c3 -5 1 -10 -4 -10 -6 0 -11 5
-11 10 0 6 2 10 4 10 3 0 8 -4 11 -10z m655 4 c0 -8 -19 -13 -24 -6 -3 5 1 9
9 9 8 0 15 -2 15 -3z m1110 2 c0 -3 -4 -8 -10 -11 -5 -3 -10 -1 -10 4 0 6 5
11 10 11 6 0 10 -2 10 -4z m-3122 -51 c-3 -3 -9 2 -12 12 -6 14 -5 15 5 6 7
-7 10 -15 7 -18z m-838 5 c0 -5 -2 -10 -4 -10 -3 0 -8 5 -11 10 -3 6 -1 10 4
10 6 0 11 -4 11 -10z m75 0 c3 -5 1 -10 -4 -10 -6 0 -11 5 -11 10 0 6 2 10 4
10 3 0 8 -4 11 -10z m840 0 c3 -5 1 -10 -4 -10 -6 0 -11 5 -11 10 0 6 2 10 4
10 3 0 8 -4 11 -10z m1240 0 c3 -5 1 -10 -4 -10 -6 0 -11 5 -11 10 0 6 2 10 4
10 3 0 8 -4 11 -10z m85 0 c0 -5 -5 -10 -11 -10 -5 0 -7 5 -4 10 3 6 8 10 11
10 2 0 4 -4 4 -10z m635 0 c3 -5 1 -10 -4 -10 -6 0 -11 5 -11 10 0 6 2 10 4
10 3 0 8 -4 11 -10z m1125 6 c0 -3 -4 -8 -10 -11 -5 -3 -10 -1 -10 4 0 6 5 11
10 11 6 0 10 -2 10 -4z m-4554 -48 c3 -4 -1 -5 -10 -4 -8 1 -18 5 -22 8 -3 4
1 5 10 4 8 -1 18 -5 22 -8z m1514 2 c0 -5 -4 -10 -10 -10 -5 0 -10 5 -10 10 0
6 5 10 10 10 6 0 10 -4 10 -10z m960 0 c0 -5 -4 -10 -10 -10 -5 0 -10 5 -10
10 0 6 5 10 10 10 6 0 10 -4 10 -10z m-110 -34 c0 -2 -8 -10 -17 -17 -16 -13
-17 -12 -4 4 13 16 21 21 21 13z m990 -6 c0 -5 -5 -10 -11 -10 -5 0 -7 5 -4
10 3 6 8 10 11 10 2 0 4 -4 4 -10z m80 0 c0 -5 -2 -10 -4 -10 -3 0 -8 5 -11
10 -3 6 -1 10 4 10 6 0 11 -4 11 -10z m-2240 -34 c0 -3 -4 -8 -10 -11 -5 -3
-10 -1 -10 4 0 6 5 11 10 11 6 0 10 -2 10 -4z m75 -14 c-3 -3 -11 0 -18 7 -9
10 -8 11 6 5 10 -3 15 -9 12 -12z m250 8 c3 -6 -1 -7 -9 -4 -18 7 -21 14 -7
14 6 0 13 -4 16 -10z m1875 0 c0 -5 -5 -10 -11 -10 -5 0 -7 5 -4 10 3 6 8 10
11 10 2 0 4 -4 4 -10z m680 6 c0 -3 -4 -8 -10 -11 -5 -3 -10 -1 -10 4 0 6 5
11 10 11 6 0 10 -2 10 -4z m-2920 -48 c0 -4 -4 -8 -9 -8 -6 0 -12 4 -15 8 -3
5 1 9 9 9 8 0 15 -4 15 -9z m80 8 c0 -3 -4 -8 -10 -11 -5 -3 -10 -1 -10 4 0 6
5 11 10 11 6 0 10 -2 10 -4z m165 -5 c-9 -8 -36 -10 -30 -2 2 4 11 8 20 8 8 0
13 -3 10 -6z m1955 -1 c0 -5 -5 -10 -11 -10 -5 0 -7 5 -4 10 3 6 8 10 11 10 2
0 4 -4 4 -10z m680 -2 c0 -4 -4 -8 -9 -8 -6 0 -12 4 -15 8 -3 5 1 9 9 9 8 0
15 -4 15 -9z m80 8 c0 -3 -4 -8 -10 -11 -5 -3 -10 -1 -10 4 0 6 5 11 10 11 6
0 10 -2 10 -4z m-1445 -54 c-3 -3 -11 0 -18 7 -9 10 -8 11 6 5 10 -3 15 -9 12
-12z m-1840 -32 c3 -5 1 -10 -4 -10 -6 0 -11 5 -11 10 0 6 2 10 4 10 3 0 8 -4
11 -10z m1725 6 c0 -3 -4 -8 -10 -11 -5 -3 -10 -1 -10 4 0 6 5 11 10 11 6 0
10 -2 10 -4z m75 -6 c3 -5 1 -10 -4 -10 -6 0 -11 5 -11 10 0 6 2 10 4 10 3 0
8 -4 11 -10z m85 0 c0 -5 -2 -10 -4 -10 -3 0 -8 5 -11 10 -3 6 -1 10 4 10 6 0
11 -4 11 -10z m637 -35 c0 -8 -4 -15 -9 -15 -10 0 -11 14 -1 23 9 10 10 9 10
-8z m-3682 -5 c3 -5 1 -10 -4 -10 -6 0 -11 5 -11 10 0 6 2 10 4 10 3 0 8 -4
11 -10z m1205 0 c0 -5 -4 -10 -10 -10 -5 0 -10 5 -10 10 0 6 5 10 10 10 6 0
10 -4 10 -10z m1715 0 c3 -5 1 -10 -4 -10 -6 0 -11 5 -11 10 0 6 2 10 4 10 3
0 8 -4 11 -10z m85 0 c0 -5 -4 -10 -10 -10 -5 0 -10 5 -10 10 0 6 5 10 10 10
6 0 10 -4 10 -10z m80 0 c0 -5 -2 -10 -4 -10 -3 0 -8 5 -11 10 -3 6 -1 10 4
10 6 0 11 -4 11 -10z m-3040 -40 c0 -5 -2 -10 -4 -10 -3 0 -8 5 -11 10 -3 6
-1 10 4 10 6 0 11 -4 11 -10z m84 -2 c-3 -4 -9 -8 -15 -8 -5 0 -9 4 -9 8 0 5
7 9 15 9 8 0 12 -4 9 -9z m1036 8 c0 -3 -4 -8 -10 -11 -5 -3 -10 -1 -10 4 0 6
5 11 10 11 6 0 10 -2 10 -4z m1795 -6 c3 -5 1 -10 -4 -10 -6 0 -11 5 -11 10 0
6 2 10 4 10 3 0 8 -4 11 -10z m85 0 c0 -5 -2 -10 -4 -10 -3 0 -8 5 -11 10 -3
6 -1 10 4 10 6 0 11 -4 11 -10z m80 0 c0 -5 -5 -10 -11 -10 -5 0 -7 5 -4 10 3
6 8 10 11 10 2 0 4 -4 4 -10z m600 0 c0 -5 -5 -10 -11 -10 -5 0 -7 5 -4 10 3
6 8 10 11 10 2 0 4 -4 4 -10z m-3720 -36 c0 -8 -19 -13 -24 -6 -3 5 1 9 9 9 8
0 15 -2 15 -3z m1205 -3 c-9 -8 -36 -10 -30 -2 2 4 11 8 20 8 8 0 13 -3 10 -6z
m2475 -1 c0 -5 -2 -10 -4 -10 -3 0 -8 5 -11 10 -3 6 -1 10 4 10 6 0 11 -4 11
-10z m33 -35 c-3 -9 -8 -14 -10 -11 -3 3 -2 9 2 15 9 16 15 13 8 -4z m-3638
-5 c3 -5 1 -10 -4 -10 -6 0 -11 5 -11 10 0 6 2 10 4 10 3 0 8 -4 11 -10z
m3045 6 c0 -3 -4 -8 -10 -11 -5 -3 -10 -1 -10 4 0 6 5 11 10 11 6 0 10 -2 10
-4z m1120 0 c0 -3 -4 -8 -10 -11 -5 -3 -10 -1 -10 4 0 6 5 11 10 11 6 0 10 -2
10 -4z m-3440 -40 c0 -3 -4 -8 -10 -11 -5 -3 -10 -1 -10 4 0 6 5 11 10 11 6 0
10 -2 10 -4z m3400 0 c0 -3 -4 -8 -10 -11 -5 -3 -10 -1 -10 4 0 6 5 11 10 11
6 0 10 -2 10 -4z m-3350 -42 c0 -8 -19 -13 -24 -6 -3 5 1 9 9 9 8 0 15 -2 15
-3z m3305 -4 c3 -5 1 -10 -4 -10 -6 0 -11 5 -11 10 0 6 2 10 4 10 3 0 8 -4 11
-10z m85 6 c0 -3 -4 -8 -10 -11 -5 -3 -10 -1 -10 4 0 6 5 11 10 11 6 0 10 -2
10 -4z m-249 -34 c-7 -2 -18 1 -23 6 -8 8 -4 9 13 5 13 -4 18 -8 10 -11z
m-317 -22 c-6 -6 -10 -3 -10 10 0 13 4 16 10 10 7 -7 7 -13 0 -20z m80 0 c-6
-6 -10 -3 -10 10 0 13 4 16 10 10 7 -7 7 -13 0 -20z m246 -24 c0 -3 -4 -8 -10
-11 -5 -3 -10 -1 -10 4 0 6 5 11 10 11 6 0 10 -2 10 -4z m40 -46 c0 -5 -2 -10
-4 -10 -3 0 -8 5 -11 10 -3 6 -1 10 4 10 6 0 11 -4 11 -10z m120 6 c0 -2 -7
-7 -16 -10 -8 -3 -12 -2 -9 4 6 10 25 14 25 6z m-446 -52 c3 -8 2 -12 -4 -9
-6 3 -10 10 -10 16 0 14 7 11 14 -7z m286 12 c0 -3 -4 -8 -10 -11 -5 -3 -10
-1 -10 4 0 6 5 11 10 11 6 0 10 -2 10 -4z m80 -6 c0 -5 -2 -10 -4 -10 -3 0 -8
5 -11 10 -3 6 -1 10 4 10 6 0 11 -4 11 -10z m-1800 -64 c0 -2 -8 -10 -17 -17
-16 -13 -17 -12 -4 4 13 16 21 21 21 13z"/>
<path d="M5045 4736 c-89 -40 -119 -155 -60 -232 59 -77 170 -82 234 -9 106
121 -28 306 -174 241z"/>
<path d="M7765 8400 c10 -11 20 -20 23 -20 3 0 -3 9 -13 20 -10 11 -20 20 -23
20 -3 0 3 -9 13 -20z"/>
<path d="M4373 9643 c9 -2 23 -2 30 0 6 3 -1 5 -18 5 -16 0 -22 -2 -12 -5z"/>
</g>
</svg>
