<svg height='100px' width='100px'  fill="#000000" xmlns="http://www.w3.org/2000/svg" xmlns:xlink="http://www.w3.org/1999/xlink" viewBox="0 0 14 14" version="1.1" x="0px" y="0px"><title>plus</title><g stroke="none" stroke-width="1" fill="none" fill-rule="evenodd"><g transform="translate(-463.000000, -303.000000)" fill="#000000" fill-rule="nonzero"><path d="M470,303 C470.512836,303 470.935507,303.38604 470.993272,303.883379 L471,304 L471,309 L476,309 C476.552285,309 477,309.447715 477,310 C477,310.512836 476.61396,310.935507 476.116621,310.993272 L476,311 L471,311 L471,316 C471,316.552285 470.552285,317 470,317 C469.487164,317 469.064493,316.61396 469.006728,316.116621 L469,316 L469,311 L464,311 C463.447715,311 463,310.552285 463,310 C463,309.487164 463.38604,309.064493 463.883379,309.006728 L464,309 L469,309 L469,304 C469,303.447715 469.447715,303 470,303 Z"></path></g></g></svg>