<svg height='100px' width='100px'  fill="#000000" xmlns="http://www.w3.org/2000/svg" xmlns:xlink="http://www.w3.org/1999/xlink" version="1.1" x="0px" y="0px" viewBox="0 0 100 100" enable-background="new 0 0 100 100" xml:space="preserve"><path d="M71.234,41.29c-0.406-11.376-9.763-20.512-21.236-20.512c-11.476,0-20.833,9.141-21.235,20.521  c-4.908,3.901-8.069,9.909-8.069,16.651c0,11.73,9.543,21.273,21.273,21.273c2.84,0,5.548-0.569,8.027-1.584  c2.551,1.047,5.25,1.584,8.037,1.584c11.731,0,21.275-9.543,21.275-21.273C79.307,51.483,76.298,45.313,71.234,41.29z   M68.547,57.949c0,4.894-3.366,9.006-7.901,10.173c1.538-2.813,2.437-6.014,2.558-9.41c1.76-1.398,3.275-3.053,4.498-4.894  C68.256,55.112,68.547,56.508,68.547,57.949z M57.482,44.455c-3.198,0.133-6.205,1.412-8.517,3.5  c-0.025,0.024-0.058,0.034-0.082,0.061c-0.005,0.006-0.006,0.014-0.012,0.02c-1.152,1.059-2.12,2.324-2.854,3.742  c-1.485-0.611-2.825-1.556-3.896-2.766c0.421-0.748,0.878-1.477,1.4-2.158c1.86-2.425,4.311-4.363,7.088-5.604  c2.342-1.045,4.838-1.575,7.42-1.575c0.753,0,1.501,0.063,2.242,0.153c0.155,0.718,0.242,1.461,0.242,2.226  c0,0.875-0.109,1.732-0.317,2.562c-0.713-0.116-1.438-0.181-2.167-0.181c-0.104,0-0.207,0.01-0.312,0.012  C57.641,44.442,57.562,44.445,57.482,44.455z M43.072,68.406c-1.61-2.292-2.662-4.869-3.088-7.603  c1.702,0.913,3.53,1.599,5.443,2.021c0.55,1.418,1.339,2.734,2.329,3.893c-0.507,0.336-1.041,0.632-1.601,0.876  C45.168,68.024,44.135,68.295,43.072,68.406z M37.992,48.218c0.3,0.582,0.635,1.145,1.018,1.68c0.007,0.013,0.017,0.025,0.024,0.038  c0.028,0.039,0.049,0.083,0.077,0.121c0.019,0.026,0.041,0.05,0.061,0.076c0.005,0.005,0.009,0.012,0.014,0.017  c1.798,2.396,4.359,4.149,7.229,4.938c1.157,0.319,2.362,0.481,3.583,0.481c0.725,0,1.443-0.064,2.153-0.179  c0.21,0.832,0.331,1.688,0.331,2.56c0,0.753-0.083,1.498-0.242,2.224c-1.792,0.222-3.629,0.193-5.418-0.121  c-5.365-0.945-10.062-4.296-12.742-9.036C35.146,49.806,36.479,48.839,37.992,48.218z M32.293,53.83  c1.242,1.858,2.765,3.497,4.495,4.871c0.115,3.336,0.984,6.535,2.568,9.422c-4.538-1.165-7.905-5.278-7.905-10.174  C31.451,56.488,31.752,55.096,32.293,53.83z M49.992,64.715c-0.377-0.447-0.701-0.931-0.998-1.431  c0.334,0.016,0.669,0.044,1.003,0.044c0.339,0,0.678-0.028,1.018-0.045C50.718,63.787,50.372,64.264,49.992,64.715z M49.046,52.504  c0.284-0.465,0.603-0.904,0.952-1.316c0.351,0.416,0.668,0.855,0.948,1.316C50.313,52.561,49.678,52.561,49.046,52.504z   M49.999,38.256c-2.551-1.045-5.249-1.582-8.032-1.582c-0.35,0-0.69,0.036-1.036,0.053c1.855-3.176,5.258-5.189,9.067-5.189  c3.851,0,7.215,2.086,9.048,5.181c-0.339-0.016-0.676-0.044-1.015-0.044C55.248,36.674,52.55,37.21,49.999,38.256z M49.998,23.778  c10.077,0,18.275,8.198,18.275,18.275c0,4.8-1.933,9.41-5.265,12.809c-0.28-1.93-0.817-3.796-1.609-5.564  c1.384-2.165,2.116-4.649,2.116-7.244c0-1.354-0.205-2.661-0.578-3.895c-0.004-0.018-0.009-0.035-0.013-0.052  c-0.024-0.078-0.053-0.153-0.078-0.231c-0.002-0.004-0.003-0.009-0.005-0.013c-1.769-5.406-6.854-9.325-12.844-9.325  c-5.645,0-10.597,3.439-12.602,8.644c-1.916,0.422-3.737,1.096-5.422,1.998C33.359,30.466,40.902,23.778,49.998,23.778z   M23.694,57.949c0-10.077,8.197-18.275,18.273-18.275c1.482,0,2.931,0.195,4.343,0.542c-1.761,1.168-3.346,2.597-4.696,4.235  c-1.041,0.027-2.05,0.175-3.021,0.425c-0.118,0.015-0.236,0.04-0.353,0.084c-0.009,0.003-0.017,0.01-0.026,0.013  c-2.839,0.823-5.289,2.554-7.027,4.857c-0.077,0.083-0.146,0.172-0.202,0.269c-1.588,2.216-2.534,4.922-2.534,7.85  c0,7.452,6.063,13.516,13.516,13.516c0.097,0,0.192-0.013,0.288-0.015c0.026,0.001,0.052,0.009,0.078,0.009  c0.039,0,0.076-0.016,0.115-0.019c1.699-0.06,3.349-0.417,4.906-1.097c1.337-0.584,2.564-1.375,3.649-2.353  c0.029-0.026,0.054-0.056,0.082-0.082c0.009-0.01,0.021-0.017,0.029-0.026c0.002-0.002,0.003-0.005,0.005-0.008  c1.729-1.595,2.999-3.595,3.709-5.791c0.041-0.104,0.069-0.211,0.087-0.323c0.363-1.229,0.567-2.509,0.567-3.812  c0-1.597-0.301-3.159-0.84-4.631c-0.006-0.025-0.006-0.051-0.013-0.076c-0.034-0.125-0.088-0.238-0.149-0.345  c-0.542-1.341-1.295-2.591-2.24-3.702c1.391-0.921,2.997-1.515,4.692-1.696c2.159,3.075,3.31,6.666,3.31,10.45  c0,10.076-8.198,18.273-18.275,18.273C31.891,76.223,23.694,68.025,23.694,57.949z M58.031,76.223c-1.481,0-2.929-0.194-4.339-0.54  c1.771-1.175,3.359-2.601,4.706-4.236c7.281-0.197,13.148-6.169,13.148-13.497c0-2.604-0.736-5.094-2.127-7.263  c0.786-1.761,1.33-3.628,1.616-5.549c3.336,3.397,5.271,8.009,5.271,12.812C76.307,68.025,68.108,76.223,58.031,76.223z"></path></svg>