<!-- Generated by IcoMoon.io -->
<svg version="1.1" xmlns="http://www.w3.org/2000/svg" width="384" height="448" viewBox="0 0 384 448">
<title></title>
<g id="icomoon-ignore">
</g>
<path d="M229.75 325.75v-39.25c0-8.25-2.5-12.5-7.25-12.5-2.75 0-5.5 1.25-8.25 4v56c2.75 2.75 5.5 4 8.25 4 4.75 0 7.25-4 7.25-12.25zM275.75 295.25h16.5v-8.5c0-8.5-2.75-12.75-8.25-12.75s-8.25 4.25-8.25 12.75v8.5zM133 228.75v17.5h-20v105.75h-18.5v-105.75h-19.5v-17.5h58zM183.25 260.25v91.75h-16.75v-10c-6.5 7.5-12.75 11.25-19 11.25-5.25 0-9-2.25-10.5-7-1-2.75-1.5-7-1.5-13.5v-72.5h16.5v67.5c0 3.75 0 6 0.25 6.5 0.25 2.5 1.5 3.75 3.75 3.75 3.5 0 6.75-2.5 10.5-7.75v-70h16.75zM246.25 288v36.5c0 8.25-0.5 14.5-1.75 18.25-2 7-6.5 10.5-13.25 10.5-5.75 0-11.5-3.5-17-10.25v9h-16.75v-123.25h16.75v40.25c5.25-6.5 11-10 17-10 6.75 0 11.25 3.5 13.25 10.5 1.25 3.75 1.75 9.75 1.75 18.5zM309 320.25v2.25c0 5.5-0.25 9-0.5 10.75-0.5 3.75-1.75 7-3.75 10-4.5 6.75-11.5 10-20 10-8.75 0-15.5-3.25-20.25-9.5-3.5-4.5-5.25-11.75-5.25-21.5v-32.25c0-9.75 1.5-16.75 5-21.5 4.75-6.25 11.5-9.5 20-9.5 8.25 0 15 3.25 19.5 9.5 3.5 4.75 5.25 11.75 5.25 21.5v19h-33.25v16.25c0 8.5 2.75 12.75 8.5 12.75 4 0 6.5-2.25 7.5-6.5 0-1 0.25-4.75 0.25-11.25h17zM196.25 114.25v39c0 8.5-2.75 12.75-8 12.75-5.5 0-8-4.25-8-12.75v-39c0-8.5 2.5-13 8-13 5.25 0 8 4.5 8 13zM329.5 292.5v0c0-21.5 0-44.25-4.75-65-3.5-14.75-15.5-25.5-29.75-27-34-3.75-68.5-3.75-103-3.75-34.25 0-68.75 0-102.75 3.75-14.5 1.5-26.5 12.25-29.75 27-4.75 20.75-5 43.5-5 65v0c0 21.25 0 44 5 65 3.25 14.5 15.25 25.25 29.5 27 34.25 3.75 68.75 3.75 103 3.75s68.75 0 103-3.75c14.25-1.75 26.25-12.5 29.5-27 5-21 5-43.75 5-65zM140.75 129.75l22.5-74h-18.75l-12.75 48.75-13.25-48.75h-19.5c3.75 11.5 8 23 11.75 34.5 6 17.5 9.75 30.5 11.5 39.5v50.25h18.5v-50.25zM213 150v-32.5c0-9.75-1.75-17-5.25-21.75-4.75-6.25-11.25-9.5-19.5-9.5-8.5 0-15 3.25-19.5 9.5-3.5 4.75-5.25 12-5.25 21.75v32.5c0 9.75 1.75 17 5.25 21.75 4.5 6.25 11 9.5 19.5 9.5 8.25 0 14.75-3.25 19.5-9.5 3.5-4.5 5.25-12 5.25-21.75zM258.25 180h16.75v-92.5h-16.75v70.75c-3.75 5.25-7.25 7.75-10.5 7.75-2.25 0-3.75-1.25-4-4-0.25-0.5-0.25-2.5-0.25-6.5v-68h-16.75v73.25c0 6.5 0.5 10.75 1.5 13.75 1.75 4.5 5.5 6.75 10.75 6.75 6.25 0 12.5-3.75 19.25-11.25v10zM384 104v240c0 39.75-32.25 72-72 72h-240c-39.75 0-72-32.25-72-72v-240c0-39.75 32.25-72 72-72h240c39.75 0 72 32.25 72 72z"></path>
</svg>
